# xmcd CD database file
#
# Track frame offsets:
#	150
#	19492
#	32482
#	48240
#	65685
#	78805
#	92675
#	103277
#	113387
#	125367
#	137095
#	150360
#	162087
#	173020
#	183577
#	194460
#
# Disc length: 2729 seconds
#
# Revision: 0
# Processed by: cddbd v1.5.2PL0 Copyright (c) Steve Scherf et al.
# Submitted via: Feurio! 1.63 - http://www.feurio.com
#
DISCID=c70aa710
DTITLE=Various Artist - Golden Country Greats ~ Vol 2
DYEAR=1993
DGENRE=Country
TTITLE0=Bobby Gentry - Ode To Billy Joe
TTITLE1=Johnny Horton - North To Alaska
TTITLE2=Nina Martin - These Boots Are Make For Walking
TTITLE3=Tennessee - Blue Train
TTITLE4=Jim Reeves - Distant Drums
TTITLE5=Jimmy Dean - Big Bad John
TTITLE6=Wanda Jackson - It's Only Make Believe
TTITLE7=Johnny Csh - Ballade Of A Teenage Queen
TTITLE8=Conway Twitty - What Am I Living For
TTITLE9=Bobby Bare - Music City USA
TTITLE10=Don Willams and The Pozo Seco Singers - Ruby Tuesday
TTITLE11=Kenny Rogers - Me And Boby Mc Gee
TTITLE12=Waylon Jennings - Sally Was A Good Old Girl
TTITLE13=Willie Nelson - Broken Promises
TTITLE14=Billy Jo Spears - I'm So Lonesome I Could Cry
TTITLE15=Roger Miller - Relase Me
EXTD=
EXTT0=
EXTT1=
EXTT2=
EXTT3=
EXTT4=
EXTT5=
EXTT6=
EXTT7=
EXTT8=
EXTT9=
EXTT10=
EXTT11=
EXTT12=
EXTT13=
EXTT14=
EXTT15=
PLAYORDER=
